#!OML:ASF F:\VICON\USERDATA\INSTALL\rory3\rory3.ASF
:FULLY-SPECIFIED
:DEGREES
528
root -21.6434 18.2723 11.9856 -347.806 84.6405 14.176
lowerback 9.13695 1.85976 0.60533
upperback 1.7196 2.58161 0.200136
thorax -3.3163 1.29558 -0.438742
lowerneck -7.22345 -2.90976 -12.6912
upperneck 44.6535 0.351564 4.06967
head 17.9991 -0.520829 4.60422
rclavicle 3.19795e-014 -3.97569e-016
rhumerus -23.4942 -8.23451 -82.9475
rradius 38.7543
rwrist 3.75436
rhand -17.138 8.74052
rfingers 7.12502
rthumb 9.1022 -21.0431
lclavicle 3.19795e-014 -3.97569e-016
lhumerus -33.3111 14.205 81.8892
lradius 26.2442
lwrist -8.98532
lhand -19.3987 25.9133
lfingers 7.12502
lthumb 6.92033 55.7801
rfemur -2.8938 -1.3132 22.5215
rtibia 29.9209
rfoot -7.19248 -1.491
rtoes 1.52043
lfemur -17.3606 -0.730371 -20.9207
ltibia 43.6104
lfoot -6.62291 -1.2755
ltoes -17.0146
529
root -21.7513 18.2759 11.9761 -346.353 84.6824 15.6185
lowerback 8.99335 1.78721 0.415613
upperback 1.70502 2.46563 0.209142
thorax -3.26124 1.2398 -0.304748
lowerneck -7.23945 -2.91165 -12.7875
upperneck 44.6202 0.352337 4.08567
head 17.985 -0.536739 4.62641
rclavicle 8.3738e-015 8.74653e-015
rhumerus -23.942 -8.70346 -82.7737
rradius 38.6114
rwrist 4.00584
rhand -16.4841 8.89544
rfingers 7.12502
rthumb 9.73312 -20.8597
lclavicle 8.3738e-015 8.74653e-015
lhumerus -32.9654 14.3016 81.99
lradius 26.2555
lwrist -9.13492
lhand -19.4762 25.8658
lfingers 7.12502
lthumb 6.84547 55.7352
rfemur -3.51595 -1.20101 22.4165
rtibia 30.2899
rfoot -6.88463 -1.56403
rtoes 0.210271
lfemur -17.1295 -0.938959 -20.8609
ltibia 45.1016
lfoot -6.24845 -2.31384
ltoes -11.0194
530
root -21.8478 18.2918 11.9746 -343.017 85.0151 19.1284
lowerback 8.91283 1.62576 0.0624537
upperback 1.75344 2.21892 0.222012
thorax -3.18177 1.12146 -0.0614401
lowerneck -7.28776 -2.94394 -12.863
upperneck 44.6103 0.319433 4.07508
head 17.9993 -0.567387 4.62934
rclavicle 2.99668e-014 -1.19271e-015
rhumerus -24.4464 -8.88808 -82.6443
rradius 38.4627
rwrist 3.71576
rhand -15.9387 8.98585
rfingers 7.12502
rthumb 10.2593 -20.744
lclavicle 2.99668e-014 -1.19271e-015
lhumerus -32.6526 14.7099 81.999
lradius 26.2521
lwrist -9.58126
lhand -19.368 25.4543
lfingers 7.12502
lthumb 6.94993 55.3202
rfemur -3.8066 -1.25697 22.2708
rtibia 30.6043
rfoot -6.78685 -2.12473
rtoes -2.81569
lfemur -16.5783 -1.32445 -20.9312
ltibia 46.4276
lfoot -6.01078 -3.45318
ltoes -7.30097
531
root -21.9436 18.2991 11.9676 -339.054 85.457 23.3866
lowerback 8.93199 1.43121 -0.120176
upperback 1.82373 1.94402 0.182908
thorax -3.12415 0.987457 0.0328223
lowerneck -7.27788 -2.9886 -12.8176
upperneck 44.5667 0.228973 4.051
head 17.9804 -0.600661 4.59158
rclavicle -2.30093e-014 -4.37326e-015
rhumerus -25.0124 -9.16852 -82.5454
rradius 38.3063
rwrist 3.55583
rhand -15.7798 8.90082
rfingers 7.12502
rthumb 10.4126 -20.8213
lclavicle -2.30093e-014 -4.37326e-015
lhumerus -32.3067 14.5402 82.1661
lradius 26.3089
lwrist -9.48064
lhand -19.0831 25.3009
lfingers 7.12502
lthumb 7.22497 55.1576
rfemur -3.91003 -1.5848 22.0968
rtibia 30.8154
rfoot -6.58562 -2.16987
rtoes -6.07307
lfemur -15.7687 -1.19103 -21.1494
ltibia 47.6147
lfoot -6.23285 -4.41088
ltoes -16.6331
532
root -22.0447 18.3064 11.9552 -337.618 85.5767 24.9522
lowerback 8.86174 1.34886 -0.125853
upperback 1.85901 1.8323 0.111132
thorax -3.04611 0.932223 -0.022883
lowerneck -7.30854 -2.98986 -12.8337
upperneck 44.5228 0.145324 4.21658
head 17.9671 -0.618859 4.65763
rclavicle -8.97016e-015 4.37326e-015
rhumerus -25.5979 -9.52453 -82.526
rradius 38.1788
rwrist 3.52442
rhand -16.0624 8.78675
rfingers 7.12502
rthumb 10.14 -20.9489
lclavicle -8.97016e-015 4.37326e-015
lhumerus -31.9425 14.1637 82.3022
lradius 26.4618
lwrist -9.19075
lhand -18.9656 25.1163
lfingers 7.12502
lthumb 7.33835 54.969
rfemur -4.16647 -1.68662 22.0081
rtibia 30.8495
rfoot -6.40257 -2.05259
rtoes -5.00073
lfemur -15.1086 -0.922422 -21.2167
ltibia 48.683
lfoot -5.89831 -5.13758
ltoes -21.324
533
root -22.1434 18.3277 11.9426 -335.787 85.4829 26.7099
lowerback 8.6373 1.32513 -0.287215
upperback 1.81943 1.78322 0.0725565
thorax -2.96608 0.908281 0.0385926
lowerneck -7.32855 -2.96587 -12.9469
upperneck 44.4854 0.158333 4.31468
head 17.9479 -0.621274 4.72428
rclavicle 2.83517e-014 -3.18055e-015
rhumerus -26.1868 -9.68423 -82.429
rradius 38.0282
rwrist 3.4013
rhand -16.0598 8.66243
rfingers 7.12502
rthumb 10.1425 -21.0731
lclavicle 2.83517e-014 -3.18055e-015
lhumerus -31.6197 14.1751 82.3922
lradius 26.5546
lwrist -9.13751
lhand -18.9043 24.7438
lfingers 7.12502
lthumb 7.39752 54.5944
rfemur -4.61326 -1.65435 21.7917
rtibia 30.7766
rfoot -6.16754 -2.09645
rtoes -2.19041
lfemur -14.6363 -0.902801 -21.3023
ltibia 49.6053
lfoot -4.87372 -6.01783
ltoes -19.7882
534
root -22.238 18.3571 11.9293 -333.637 85.434 28.8485
lowerback 8.47988 1.27212 -0.518021
upperback 1.75641 1.69175 0.106895
thorax -2.95115 0.86387 0.216592
lowerneck -7.28858 -2.94092 -12.9726
upperneck 44.4175 0.2333 4.18875
head 17.889 -0.609008 4.67374
rclavicle 8.87077e-015 -2.38542e-015
rhumerus -26.8045 -9.6942 -82.1836
rradius 37.7892
rwrist 3.32302
rhand -15.7698 8.6824
rfingers 7.12502
rthumb 10.4222 -21.0393
lclavicle 8.87077e-015 -2.38542e-015
lhumerus -31.3354 14.3796 82.542
lradius 26.5751
lwrist -9.22007
lhand -19.1692 24.774
lfingers 7.12502
lthumb 7.14185 54.6335
rfemur -4.90437 -1.69547 21.5615
rtibia 30.6513
rfoot -5.92323 -2.1279
rtoes -1.856
lfemur -14.1189 -1.14156 -21.265
ltibia 50.4159
lfoot -3.204 -7.42238
ltoes -11.8282
